<svg width="96" height="96" viewBox="0 0 96 96" fill="none" xmlns="http://www.w3.org/2000/svg">
<g filter="url(#filter0_d_53_222)">
<g clip-path="url(#clip0_53_222)">
<path d="M64.5637 79.939L64.9122 79.8029L65.0912 79.7313C64.8 79.8435 64.5064 79.9533 64.208 80.0584L64.5637 79.939Z" fill="#AAF4EB"/>
<path d="M91.618 52.1326C91.6085 52.1612 91.6085 52.1779 91.6013 52.2066C91.6682 52.2806 91.7231 52.3498 91.7636 52.4119L91.618 52.1326Z" fill="#AAF4EB"/>
<path d="M87.0254 24.1447C87.0707 24.1876 87.1161 24.2354 87.1662 24.3046C87.1137 24.2091 87.0684 24.1685 87.0254 24.1447Z" fill="#AAF4EB"/>
<path d="M18.704 41.9495C18.7017 41.9137 18.6945 41.8778 18.6945 41.842C18.6897 41.8969 18.6945 41.9304 18.704 41.9495Z" fill="#AAF4EB"/>
<path d="M70.1992 76.9576L70.0918 77.0842C70.1419 77.0364 70.1753 76.9958 70.1992 76.9576Z" fill="#AAF4EB"/>
<path d="M91.6228 44.0978C91.6395 43.871 91.6586 43.6538 91.6944 43.4724L91.8352 43.5011C91.945 42.9855 92.0119 42.489 91.9999 41.9972C91.988 41.5055 91.9379 41.0233 91.871 40.5316C91.7016 39.5481 91.4653 38.5384 91.2624 37.3521L91.5894 37.6242C91.7517 36.7625 91.1406 37.4619 91.112 36.476L91.4509 36.3662C90.8303 35.6 91.3602 35.2443 91.3865 34.6142L90.9998 34.9865L90.8375 33.8694C90.773 33.2464 90.8589 33.0244 91.0046 32.9719C91.1502 32.917 91.3626 33.034 91.5011 33.0936C91.3101 32.8478 91.1096 32.6067 90.9162 32.3656L91.26 32.0887C90.625 31.6256 91.1764 31.4538 90.5725 30.4918C90.6895 30.3557 90.8637 30.5896 90.804 30.2125L90.2383 29.451L89.6368 28.7182C89.8469 29.0238 90.0712 29.3245 90.2694 29.6396L89.6678 29.7255C89.2549 29.2839 89.1284 28.9331 89.052 28.5989C88.9732 28.2671 88.9493 27.9496 88.7035 27.6226C88.8324 27.7658 88.9684 27.9042 89.0878 28.0546C88.4266 26.9208 88.6199 26.7561 88.429 26.0233C88.429 26.2811 88.4242 26.6725 88.1354 26.2262C87.9277 25.8968 88.2261 25.9445 88.1163 25.5888C87.9205 25.6413 87.6675 25.4862 87.436 25.2165C87.2068 24.9443 86.9991 24.5553 86.8607 24.1495C86.9156 24.1304 86.9705 24.1184 87.0302 24.1471C86.8655 23.9943 86.7222 23.9513 86.6148 23.579L87.1066 23.5408L86.3809 23.135C86.2401 22.6528 85.5717 22.2518 85.8605 22.1348L86.0849 22.3162C85.4571 21.2659 84.772 20.2515 84.044 19.2656L84.2875 19.0007C83.9819 19.0126 83.705 18.5949 83.4496 18.2296C83.1966 17.8644 82.9412 17.5804 82.7598 17.8262C82.65 17.461 82.1606 16.9788 81.7692 16.6017C81.3777 16.2245 81.1103 15.9142 81.4947 15.814C81.2846 15.592 81.0793 15.3915 80.8764 15.2077C80.6664 15.031 80.4587 14.8687 80.2534 14.7136C79.9121 14.4629 79.5826 14.2266 79.2413 14.0022C79.1649 13.9235 79.0862 13.8423 79.0074 13.7635C78.8427 13.594 78.678 13.4246 78.5133 13.2551C78.3486 13.0856 78.1839 12.9161 78.0168 12.7467C77.8449 12.5843 77.6706 12.422 77.4988 12.2597C77.3269 12.0974 77.1527 11.9327 76.9784 11.7704C76.8065 11.6057 76.6323 11.4409 76.4485 11.2906C76.0881 10.9803 75.7252 10.6676 75.3624 10.3572C75.2741 10.2785 75.1786 10.2021 75.0855 10.1305L74.8014 9.90848L74.2357 9.46449C74.0448 9.31889 73.861 9.16373 73.6652 9.02528L73.078 8.60755L72.4884 8.18982C72.3906 8.1206 72.2927 8.04899 72.1924 7.98215L71.8869 7.78642C71.4811 7.52623 71.0753 7.26366 70.6671 7.00109C69.8293 6.51652 68.9986 6.01047 68.1273 5.58081L67.4781 5.24424L67.3157 5.16069L67.1486 5.08431L66.8169 4.93154C66.3729 4.73103 65.9337 4.51858 65.4849 4.32523C65.0314 4.14382 64.5778 3.96002 64.1243 3.7786C64.0097 3.73325 63.8975 3.68551 63.7829 3.64493L63.4368 3.52558L62.7422 3.28449C60.8851 2.6567 58.9803 2.13633 57.0372 1.80692C56.2256 1.6637 55.4069 1.54674 54.5857 1.44887C54.538 1.41307 54.4903 1.38203 54.4449 1.36532C54.0511 1.20778 53.6596 1.03114 53.2609 0.868824C52.8623 0.713668 52.4565 0.587155 52.0483 0.503609C52.0436 0.503609 52.0388 0.501222 52.034 0.501222C52.0078 0.472578 51.9839 0.436773 51.9552 0.410516C51.7022 0.195683 51.3394 0.124073 50.7761 0.288777C50.566 0.35084 50.3488 0.391419 50.1268 0.412903C49.9048 0.436773 49.6756 0.455869 49.4465 0.455869C48.9882 0.460643 48.5227 0.412903 48.0811 0.362775C47.6419 0.329357 47.2027 0.284003 46.7635 0.236263C46.5439 0.21478 46.3243 0.183748 46.1047 0.164652L45.4458 0.114525C45.0066 0.0834933 44.565 0.0429139 44.1234 0.0214307C43.6818 0.0118826 43.2402 0.0071086 42.7962 0.0118826C40.6742 0.0620101 38.5569 0.353227 36.4682 0.792439C36.9361 0.833019 37.5066 0.849728 38.1463 0.84018C38.4662 0.828245 38.8075 0.84018 39.1632 0.837793C39.3589 0.837793 39.5618 0.835406 39.7647 0.833019C39.6907 0.933274 39.6167 1.03353 39.5427 1.13617C39.7218 1.04308 39.9008 0.947596 40.0822 0.866437C40.0726 0.854502 40.0631 0.842567 40.0536 0.828245C40.1252 0.825858 40.1944 0.825858 40.2636 0.823471C40.6431 0.821083 41.0346 0.833019 41.4333 0.830632C41.6314 0.830632 41.8343 0.830632 42.0348 0.830632C42.135 0.830632 42.2377 0.828245 42.3403 0.830632C42.443 0.835406 42.5432 0.837793 42.6459 0.842567C43.054 0.856889 43.467 0.868824 43.88 0.875985L44.1903 0.883146C44.2929 0.885533 44.3955 0.895081 44.5006 0.899855C44.7059 0.91179 44.9111 0.923725 45.1164 0.935661C45.3217 0.945209 45.5246 0.957144 45.7275 0.966692C45.9304 0.978627 46.1309 0.981014 46.3314 1.0025C46.7301 1.03592 47.1215 1.06933 47.5034 1.09559C47.6944 1.10991 47.883 1.12185 48.0692 1.13617C48.253 1.15527 48.4368 1.17436 48.6134 1.19346C48.6444 1.19585 48.6731 1.19823 48.7041 1.20301C48.5323 1.20539 48.3604 1.21017 48.1885 1.22449L47.9689 1.23881C47.9594 1.23404 47.9498 1.23165 47.9403 1.22449C47.6873 1.07411 47.2934 1.08127 46.9926 1.17436C46.668 1.26268 46.3505 1.33191 46.0354 1.38442C45.8922 1.40829 45.749 1.425 45.6058 1.44171L45.4864 1.45603C45.3575 1.47035 45.2262 1.48468 45.0973 1.499C44.787 1.52764 44.4767 1.54196 44.1664 1.54435C44.0112 1.54435 43.8585 1.54196 43.7033 1.53719C43.5482 1.53003 43.3954 1.53242 43.2402 1.52764C42.9323 1.51809 42.622 1.499 42.3141 1.47035C42.1589 1.45603 42.0037 1.44171 41.8486 1.42261C41.6934 1.4059 41.5383 1.39636 41.3831 1.38203C41.0704 1.35339 40.7577 1.32236 40.445 1.28655L39.9724 1.23404C39.8148 1.21733 39.6573 1.21017 39.4998 1.19585C39.5165 1.17675 39.526 1.15765 39.5427 1.13617C39.5069 1.15527 39.4735 1.17198 39.4377 1.19107L39.4759 1.22926C39.0868 1.37249 38.6357 1.35578 38.1869 1.47513C37.7381 1.60164 37.2942 1.87853 36.9504 2.56361C37.213 2.55645 37.4565 2.55406 37.6856 2.55168C37.8002 2.55168 37.91 2.55168 38.0174 2.54929C38.1248 2.5469 38.2275 2.54929 38.3301 2.55406C38.7383 2.56838 39.1035 2.57316 39.4663 2.54213C39.6478 2.5278 39.8292 2.50632 40.0106 2.48245C40.0703 2.47768 40.1275 2.47052 40.1872 2.46336C39.939 2.53019 39.6883 2.59225 39.4401 2.66387C39.2038 2.7307 38.9627 2.79038 38.7288 2.86438L38.027 3.09592L37.3252 3.32746L36.9743 3.44442L36.6306 3.57809C36.5709 3.60197 36.5112 3.62345 36.4515 3.64732C36.1651 3.71177 35.8786 3.77383 35.5922 3.83351L35.3225 3.88841L35.0551 3.95524L34.518 4.08176L33.9452 4.21304L33.6587 4.27988C33.5632 4.30136 33.4701 4.33239 33.3747 4.35626L32.2361 4.67374L31.952 4.75251C31.8565 4.77877 31.7634 4.81219 31.6703 4.84322L31.107 5.02702L30.5437 5.21321L30.262 5.3063C30.1689 5.33972 30.0758 5.37552 29.9827 5.41133L28.8703 5.83622L28.5911 5.94363L28.3166 6.06299L27.7675 6.30169L27.2185 6.54278C27.1278 6.58336 27.0347 6.62155 26.944 6.66452L26.6743 6.79819L25.5954 7.33288C24.1775 8.08479 22.7739 8.90354 21.4515 9.85835L20.9478 10.1997C20.7807 10.3167 20.6232 10.4479 20.4609 10.5697L19.4917 11.3288C19.1766 11.5913 18.8687 11.8635 18.556 12.1332L18.0906 12.5414C17.9402 12.6822 17.7922 12.8254 17.6418 12.9686C17.3267 13.2742 17.0092 13.5773 16.6989 13.8876L15.7942 14.852C15.4863 15.1695 15.2094 15.5132 14.9206 15.8498C14.6365 16.1887 14.3382 16.5205 14.0732 16.8762L13.2544 17.9337C12.9895 18.2917 12.7365 18.6593 12.4763 19.0245C12.3474 19.2083 12.2161 19.3897 12.0896 19.5759L11.7244 20.1416L11.3591 20.7074C11.2398 20.8983 11.1109 21.0821 10.9987 21.2803L10.3089 22.4475L10.137 22.7411L9.97467 23.0395L9.65243 23.6386C9.20605 24.4335 8.82174 25.2618 8.41117 26.0829C8.21782 26.4983 8.03402 26.9208 7.84306 27.3409L7.55901 27.9735L7.29643 28.6156C7.12457 29.0452 6.94077 29.4749 6.77129 29.9093C6.60897 30.3486 6.44665 30.7854 6.28434 31.2246C6.10292 31.6853 6.08621 32.1961 6.00028 32.6902C6.1984 32.1985 6.38459 31.7092 6.6042 31.2294C6.65194 31.1196 6.69968 31.0122 6.74742 30.9023L6.38459 32.1102C6.24853 32.5375 6.15066 32.9767 6.03847 33.4111C5.93344 33.8479 5.81171 34.2824 5.72816 34.7264L5.45604 36.0535C5.37488 36.4975 5.30804 36.9463 5.23643 37.3951C5.20063 37.6194 5.16244 37.8438 5.1314 38.0682L5.05025 38.7461L4.96909 39.424C4.94522 39.6508 4.90941 39.8776 4.89509 40.1043L4.78767 41.4721L4.76142 41.8158L4.74709 42.1595L4.71845 42.847C4.66593 43.766 4.68264 44.685 4.6731 45.6136C4.68026 46.0767 4.69935 46.5373 4.71368 47.0028L4.73516 47.7022L4.78051 48.3992C4.81393 48.8647 4.83541 49.3326 4.87361 49.8004C4.91896 50.2683 4.96431 50.7361 5.00967 51.204C5.04786 51.7005 5.25553 52.1636 5.39159 52.6457C5.35578 52.1134 5.30804 51.5883 5.29611 51.0584C5.27701 50.5285 5.25076 50.0057 5.23405 49.4829C5.22927 48.9626 5.2245 48.4398 5.21972 47.9194C5.21972 47.7905 5.21495 47.6616 5.21734 47.5303L5.22689 47.1413L5.24598 46.3679L5.26508 45.5992L5.31043 44.8306L5.3534 44.0668L5.37488 43.6872L5.41069 43.3077L5.55152 41.7967L5.74726 40.3001C6.0337 38.3164 6.43233 36.371 6.94793 34.4781C7.47785 32.5876 8.13189 30.7544 8.91006 28.9975C8.87903 29.1956 8.83368 29.389 8.79787 29.5847C8.75968 29.7804 8.7191 29.9738 8.67136 30.1648C8.57827 30.5491 8.45891 30.9238 8.34434 31.3034C8.23692 31.6829 8.11757 32.0624 7.99583 32.4396C7.93854 32.6306 7.86932 32.8167 7.81919 33.0101L7.66404 33.5877C7.56617 33.9744 7.46353 34.3588 7.39669 34.7526C7.33463 35.1465 7.28689 35.5403 7.26302 35.939C7.25347 36.1371 7.24153 36.3352 7.25347 36.5357C7.26302 36.7362 7.27973 36.9367 7.30598 37.1373C7.3585 37.5383 7.43727 37.9393 7.57333 38.3355C7.69745 37.913 7.83113 37.4953 7.95048 37.08L8.12951 36.4569C8.19395 36.2493 8.2584 36.044 8.32047 35.8387C8.38253 35.6334 8.44221 35.4258 8.49949 35.2205C8.55678 35.0152 8.61168 34.8075 8.67852 34.6046C8.80503 34.1964 8.922 33.7859 9.0318 33.3777C9.08431 33.1676 9.15354 32.9623 9.21799 32.7547L9.41134 32.1364L9.60469 31.5206L9.8219 30.9119L10.0391 30.3056L10.1489 30.0024C10.1847 29.9022 10.2277 29.8043 10.2683 29.7041L10.7552 28.5153C11.4427 26.9494 12.2185 25.4361 13.1112 24.0062C14.0183 22.586 15.0185 21.2421 16.1308 20.0199C16.4101 19.7168 16.7037 19.4255 16.9925 19.1319C17.1334 18.9935 17.2694 18.8503 17.415 18.7142C17.0307 19.268 16.6583 19.8313 16.3027 20.4042L15.7799 21.1108L15.4624 21.5428C15.355 21.6861 15.2619 21.8388 15.1593 21.9868L14.5578 22.882C14.4551 23.0299 14.3644 23.1851 14.2689 23.3379L13.9873 23.7986L13.7032 24.2617L13.5624 24.4932L13.4311 24.7295C13.0802 25.3645 12.7102 25.9946 12.3903 26.6511C11.2684 28.8471 10.2468 31.1482 9.4543 33.5854C8.6642 36.0201 8.10802 38.5838 7.92422 41.2095C7.86455 41.8134 7.84784 42.4245 7.82874 43.0427L7.81919 43.5058L7.81681 43.7374L7.82635 43.9689C7.84068 44.2768 7.86455 44.5872 7.89558 44.8951C7.91229 45.0478 7.93138 45.203 7.95287 45.3558C7.97435 45.5085 7.99583 45.6613 8.03164 45.8117C8.09847 46.1148 8.17963 46.4132 8.27511 46.7068C8.33718 46.893 8.4064 47.0792 8.4804 47.2606C8.52098 48.5186 8.6093 49.7813 8.75968 51.0512C8.7382 51.1586 8.72149 51.266 8.71671 51.3735C8.71433 51.5024 8.72387 51.6265 8.75013 51.7434C8.83845 52.1349 8.92916 52.5264 9.02703 52.9179C9.39463 55.0924 9.96513 57.2575 10.8006 59.3342C11.0106 59.8999 11.2613 60.4537 11.5095 61.0123L11.7029 61.43L11.8031 61.6377L11.9129 61.8406C12.0609 62.1079 12.2137 62.3729 12.376 62.6331C12.4572 62.762 12.5407 62.8908 12.6267 63.0174C12.7126 63.1439 12.7985 63.2704 12.8964 63.3873C13.0874 63.6237 13.2902 63.8528 13.5027 64.0724C13.7175 64.2896 13.9395 64.4973 14.183 64.6859C14.257 64.7408 14.3358 64.7909 14.4121 64.8434C14.837 65.4808 15.281 66.1086 15.7417 66.722C15.7417 66.7674 15.7417 66.808 15.7393 66.8557C15.7202 67.1063 15.7417 67.3832 15.8014 67.6482C15.8324 67.7795 15.873 67.9084 15.9231 68.0277C15.9757 68.1447 16.0401 68.2497 16.1141 68.3404C16.465 68.7725 16.8183 69.2117 17.1883 69.6318C17.5654 70.0424 17.9497 70.4505 18.3388 70.8563C18.7374 71.2478 19.148 71.6297 19.5562 72.0141C19.7591 72.2098 19.9763 72.384 20.1864 72.5678L20.8261 73.1121C20.9621 73.2219 21.1125 73.315 21.2963 73.3961C21.4801 73.4773 21.6878 73.5632 21.9265 73.6778C21.862 73.4128 21.7403 73.2004 21.5923 73.0094C21.9504 73.3197 22.3084 73.6253 22.676 73.9237C22.6712 73.9141 22.6665 73.9022 22.6617 73.8926C22.6569 73.8879 22.6498 73.8855 22.6426 73.8831C22.6474 73.8831 22.6522 73.8807 22.6569 73.8783C22.4779 73.4033 22.3227 72.8949 22.1318 72.279C22.3275 72.2122 22.5042 72.131 22.6665 72.0594C23.0556 72.4294 23.4518 72.7922 23.8552 73.1479C23.7621 73.2816 23.6595 73.4128 23.5568 73.5083C23.3348 73.7208 22.9672 73.7661 22.6569 73.8783C22.6593 73.8831 22.6593 73.8879 22.6593 73.8926C23.1272 74.1027 23.5807 74.4035 24.0486 74.5705C24.0605 74.6278 24.0653 74.6875 24.0796 74.7424C24.156 75.036 24.2682 75.3058 24.4233 75.5325C24.7313 75.9932 25.1705 76.3656 25.7075 76.6998C27.5479 77.8097 29.4838 78.7717 31.4913 79.5714C31.5462 79.6 31.6011 79.6287 31.656 79.6573C31.8398 79.7504 32.026 79.8459 32.2146 79.9437C32.4055 80.0368 32.6037 80.1228 32.8018 80.2159C33.2004 80.3973 33.6158 80.5811 34.043 80.7697C34.4751 80.9439 34.9214 81.111 35.3774 81.2852C35.6065 81.3712 35.8381 81.4595 36.0744 81.5407C36.3107 81.617 36.5518 81.6934 36.7929 81.7698C37.0364 81.8462 37.2798 81.9226 37.5257 81.999C37.7716 82.0753 38.0222 82.1541 38.2752 82.2162C38.7813 82.3475 39.2969 82.4764 39.8196 82.6029L40.0154 82.6506L40.2135 82.6912C40.3448 82.7175 40.4784 82.7437 40.6097 82.77C40.8747 82.8201 41.142 82.8726 41.4094 82.9228C41.6767 82.9705 41.9465 83.0278 42.2162 83.066C42.4883 83.1018 42.758 83.14 43.0302 83.1758C43.3023 83.2116 43.5768 83.245 43.8489 83.2808C43.985 83.2975 44.1234 83.3166 44.2595 83.3285L44.6724 83.3596C45.2215 83.4025 45.7729 83.4383 46.3243 83.4718C46.4699 83.4765 46.6131 83.4742 46.7587 83.4789C47.8138 83.5911 48.8712 83.6603 49.9287 83.6794C52.3228 83.7319 54.7218 83.5768 57.0945 83.2116C60.2812 82.7079 63.4058 81.8104 66.3967 80.5596C66.0697 80.7386 65.7403 80.9153 65.4181 81.1014C65.0648 81.3067 64.7139 81.5096 64.3654 81.7125C64.0193 81.9202 63.6827 82.1374 63.3581 82.3761C63.1719 82.5098 62.9881 82.6482 62.7995 82.7724C62.6085 82.8941 62.4176 83.0135 62.2242 83.1304C61.8375 83.362 61.446 83.5792 61.0522 83.7821C60.8565 83.8871 60.6512 83.973 60.4507 84.059C60.2478 84.1449 60.0449 84.2284 59.8396 84.3072C59.429 84.4624 59.0185 84.6104 58.6007 84.725C58.1806 84.8348 57.7557 84.9278 57.3308 84.9995C56.9059 85.0711 56.481 85.1355 56.0466 85.1498C55.6146 85.1713 55.1825 85.1737 54.7505 85.1546C54.5332 85.1451 54.3184 85.1331 54.1036 85.1093C53.8863 85.083 53.6691 85.0496 53.4519 85.0138C53.0939 84.9517 52.7119 84.9159 52.3515 84.9565C51.9457 85.0066 51.5375 85.0281 51.1293 85.052C50.7212 85.0758 50.3154 85.0949 49.912 85.114C49.5062 85.1284 49.1004 85.1212 48.6946 85.1236C48.2888 85.1212 47.8878 85.1284 47.4844 85.114L46.2789 85.0639L45.6798 85.04C45.4816 85.0353 45.2811 85.0138 45.0806 85.0018C44.2834 84.9398 43.4909 84.9064 42.7008 84.8252C39.8196 84.5889 36.9838 84.09 34.2364 83.3142C32.9283 82.9442 31.6393 82.5122 30.3789 82.0181C30.0686 81.8534 29.7559 81.691 29.4504 81.5168L28.3977 80.9033L27.8726 80.6002C27.6959 80.5023 27.5288 80.3877 27.357 80.2827C26.6719 79.8506 25.9797 79.4472 25.3113 79.0009C22.8455 77.4302 20.5325 75.6447 18.42 73.6587C16.3074 71.6727 14.3954 69.4814 12.7341 67.1183C12.4476 66.7101 12.1564 66.2303 11.7578 65.994C11.5573 65.8722 11.3663 65.741 11.1873 65.6025C11.013 65.4569 10.8483 65.3041 10.6908 65.1418C10.3757 64.8196 10.094 64.4663 9.83623 64.0963C9.58798 63.7168 9.36598 63.3181 9.15593 62.9123C9.0509 62.7094 8.94825 62.5041 8.84561 62.2989C8.74774 62.0912 8.65704 61.8787 8.56156 61.6663C8.36343 61.2128 8.12473 60.7807 7.86455 60.2985C7.61391 59.8092 7.33224 59.2769 7.02431 58.6419C7.01238 59.2769 6.95748 59.4941 7.01954 59.6588C7.40146 60.6447 7.81681 61.621 8.26557 62.5853C8.19157 62.614 8.11518 62.6402 8.04119 62.6689C8.16054 62.9195 8.2775 63.1725 8.39685 63.4232L8.57827 63.8003L8.77161 64.1703C8.84084 64.1321 8.91245 64.0939 8.98167 64.0557C9.62378 65.3065 10.3351 66.5263 11.1204 67.6959C11.0321 67.7103 10.9128 67.7628 10.8173 67.7842C10.9199 67.9466 11.0059 68.1256 11.1348 68.2593C11.1777 68.3046 11.3233 68.2354 11.469 68.1996C11.5573 68.3261 11.6408 68.4526 11.7315 68.5767C13.5051 71.0616 15.5341 73.3699 17.7755 75.4657C17.7039 75.4108 17.6322 75.3583 17.5582 75.3034C17.8208 75.8739 17.8686 76.0959 17.9975 76.2128C20.4298 78.4304 23.1128 80.4259 26.0704 81.9417C27.3832 82.6196 28.7319 83.2307 30.1092 83.7749C32.6944 84.9827 35.3989 85.9781 38.1917 86.7372C41.0585 87.5178 44.0232 87.9379 47.026 87.9999C50.0313 88.062 53.0843 87.7589 56.0824 87.1024C59.0805 86.446 62.0261 85.4387 64.8404 84.121C67.6547 82.8034 70.3401 81.1754 72.8489 79.2921C75.7849 77.0793 78.4417 74.4631 80.769 71.5581C80.9194 71.3815 81.0555 71.1929 81.1987 71.0067L81.6212 70.4482L82.0389 69.8872C82.1773 69.701 82.3182 69.5148 82.4495 69.3191L83.2372 68.1614L83.6263 67.579L83.9963 66.9822L84.1538 66.7244C84.3615 66.5764 84.5119 66.4141 84.4713 66.204L84.7291 65.7839C84.8365 65.6121 84.9344 65.433 85.0322 65.254C85.4309 64.6692 85.8223 64.0748 86.1971 63.4685C86.2281 63.4876 86.2472 63.4948 86.2353 63.4088C86.3069 63.2919 86.3833 63.1797 86.4549 63.0603C87.0779 62.022 87.658 60.9502 88.1974 59.8545L88.2404 59.8307C88.7273 59.1862 88.8658 58.7279 89.0114 58.186C89.0233 58.1407 89.0329 58.0905 89.0448 58.0428C89.3217 57.4126 89.5867 56.7753 89.8349 56.1284C89.928 55.8873 90.0283 55.6391 90.1094 55.386C90.1237 55.3359 90.1381 55.2858 90.1548 55.238C90.5439 54.8418 90.8876 54.8323 90.9926 55.4266C90.9282 54.8585 90.8733 54.7201 90.8733 54.553C90.8709 54.3859 90.9139 54.1901 90.9926 53.5075C91.2528 53.369 91.2552 53.517 91.3483 53.8607C91.6419 53.3165 91.6467 53.1208 91.6085 52.9537C91.5727 52.789 91.4987 52.6529 91.6156 52.2113C91.4056 51.975 91.1 51.7005 90.9306 51.4618C90.9329 51.4331 90.9353 51.4021 90.9353 51.3758C90.9353 51.2374 90.9282 51.1204 90.9138 51.0321C90.8852 50.8555 90.8279 50.7863 90.742 50.8602C90.7086 50.8889 90.6656 50.9462 90.6226 51.0202C90.6346 50.6741 90.6513 50.3184 90.7086 49.9651C90.7921 49.4662 90.8971 48.9554 91.0738 48.435L91.2624 48.5066C91.2838 48.1199 91.3244 47.7356 91.3268 47.3465L91.5846 47.306C91.6133 46.7522 91.6586 46.1984 91.6705 45.647L91.5894 45.869C91.5846 45.6732 91.5798 45.2555 91.5965 44.7972C91.5846 44.5633 91.5989 44.3246 91.6228 44.0978ZM11.2016 24.6197L11.13 24.7462L11.0655 24.8751L10.9343 25.1329C10.76 25.479 10.5858 25.8251 10.4139 26.1689C10.2707 26.0925 10.1298 26.0185 9.98661 25.9421C10.3638 25.2547 10.7218 24.56 11.1372 23.8988C11.2565 23.9728 11.3687 24.042 11.4857 24.116C11.3926 24.2855 11.2971 24.4526 11.2016 24.6197ZM42.1279 86.7229C41.9083 86.7229 41.6887 86.7038 41.4691 86.6871C41.2495 86.668 41.0322 86.6465 40.815 86.6202C40.383 86.5653 39.9533 86.5033 39.5284 86.4078C39.2587 86.3433 38.9913 86.2693 38.724 86.1906C39.5523 86.3362 40.3853 86.4603 41.2256 86.5582C41.7674 86.6226 42.3141 86.6728 42.8583 86.7181C42.6172 86.7229 42.3713 86.7253 42.1279 86.7229ZM14.8561 53.4358C14.849 53.4287 14.8394 53.4215 14.8323 53.4144C14.6771 53.2425 14.5291 53.0515 14.4074 52.8463C14.3477 52.7484 14.2976 52.6457 14.2546 52.5431C14.2403 52.4691 14.2236 52.3951 14.2093 52.3211C14.1782 52.1683 14.1448 52.0203 14.1114 51.87C14.0899 51.71 14.066 51.5477 14.0445 51.3902L13.9944 50.9868L13.9706 50.7862C13.9634 50.7194 13.961 50.6502 13.9562 50.5834L13.9228 50.0797C14.1806 51.1133 14.479 52.1349 14.8203 53.1446C14.8299 53.2401 14.8418 53.338 14.8561 53.4358ZM43.0421 80.087C42.918 80.0631 42.7939 80.0392 42.6697 80.0154C42.591 79.9055 42.5026 79.822 42.4024 79.7671C42.3523 79.7408 42.2997 79.7217 42.2448 79.7074C42.3188 79.7027 42.3952 79.7003 42.4692 79.6979L42.5575 79.717L42.7366 79.7504L43.097 79.8148C43.2378 79.8411 43.3787 79.8674 43.5195 79.8912C43.51 79.9127 43.5028 79.9342 43.4933 79.9557C43.4694 80.0225 43.4527 80.0917 43.4336 80.1586C43.3047 80.1371 43.1734 80.1108 43.0421 80.087ZM22.4278 68.0373C22.5519 68.159 22.676 68.2807 22.8001 68.4049L22.836 68.4383C22.8813 68.4908 22.9267 68.5409 22.972 68.5934C23.1367 68.782 23.3205 68.9658 23.4948 69.152C23.5807 69.2451 23.6643 69.343 23.743 69.4385C23.8242 69.5339 23.8982 69.6318 23.9626 69.7344C23.9793 69.7607 23.9937 69.7893 24.008 69.8156C23.8433 69.6509 23.6786 69.4862 23.5186 69.3191C22.9935 68.7605 22.4827 68.19 21.9909 67.6052C22.1366 67.7508 22.2798 67.8917 22.4278 68.0373ZM21.3655 65.9653L21.4324 66.0393C21.4348 66.0441 21.4372 66.0513 21.4372 66.056C21.4133 66.025 21.3894 65.9964 21.3655 65.9653ZM50.2127 79.39C50.1554 79.39 50.0981 79.3923 50.0409 79.3923C49.7305 79.3947 49.4107 79.3852 49.086 79.3852C48.9237 79.3852 48.759 79.3852 48.5943 79.3852C48.5108 79.3852 48.4296 79.3876 48.3461 79.3852C48.2625 79.3828 48.179 79.3804 48.0954 79.3756C47.7612 79.3637 47.4247 79.3541 47.0881 79.347L46.8351 79.3422C46.7515 79.3398 46.668 79.3327 46.5821 79.3279C46.415 79.3183 46.2455 79.3088 46.0784 79.2992C46.045 79.2969 46.0139 79.2969 45.9805 79.2945C45.9781 79.2921 45.9781 79.2921 45.9758 79.2897C45.8373 79.1489 45.6965 79.0415 45.558 78.9531L46.3768 79.0653C46.6012 79.1011 46.8279 79.1107 47.0523 79.1322L47.7278 79.1894L48.4057 79.2467C48.6325 79.2634 48.8569 79.2634 49.0837 79.273L50.2819 79.3112C50.2509 79.3255 50.2199 79.3446 50.1865 79.3589C50.1984 79.3709 50.2056 79.3804 50.2127 79.39ZM46.0975 78.8433C46.3505 78.8195 46.6035 78.8075 46.8566 78.8075C46.9831 78.8075 47.1072 78.8099 47.2337 78.8147C47.3602 78.8195 47.4844 78.8171 47.6109 78.8242C47.7827 78.829 47.9546 78.8433 48.1241 78.8553C48.3127 78.9197 48.4964 78.9794 48.6659 79.0271C47.7469 79.0104 46.8208 78.9579 45.8946 78.8672C45.9638 78.86 46.033 78.8505 46.0975 78.8433ZM43.0731 78.9364C43.288 78.8815 43.5147 78.9078 43.7773 79.0653C43.8274 79.0964 43.8871 79.1178 43.9492 79.1345C43.942 79.1417 43.9372 79.1489 43.9325 79.156C43.8465 79.1489 43.7582 79.1441 43.6747 79.1369C43.5243 79.1202 43.3763 79.1059 43.2307 79.0892C43.0851 79.0749 42.9395 79.0605 42.801 79.0486C42.8893 79.0009 42.98 78.9603 43.0731 78.9364ZM51.7356 78.8648C51.8359 78.8362 51.9361 78.798 52.034 78.7455C52.1486 78.7383 52.2608 78.7359 52.3754 78.7287C52.731 78.7216 53.1106 78.7359 53.5116 78.7669C52.6714 78.872 51.8192 78.9484 50.9599 78.9913C51.2081 78.946 51.4731 78.934 51.7356 78.8648ZM41.3736 77.8169C41.2017 77.867 41.0275 77.9267 40.8508 77.9935C40.784 77.9744 40.7148 77.953 40.6479 77.9339C40.6551 77.8264 40.6575 77.7286 40.6503 77.6379C40.8914 77.6999 41.1325 77.7596 41.3736 77.8169ZM24.1798 59.6278C24.2467 59.7638 24.3135 59.8999 24.3804 60.0336C24.292 60.0837 24.2037 60.1314 24.1154 60.1816C24.0868 60.0145 24.0557 59.8474 24.0271 59.6827C24.0772 59.6636 24.1273 59.6445 24.1798 59.6278ZM32.1477 74.3629C32.131 74.3271 32.1119 74.2889 32.0952 74.2507C32.532 74.4894 32.9736 74.7209 33.42 74.9429C33.4797 75.0169 33.5418 75.0862 33.6038 75.1554C33.1121 74.9024 32.6275 74.6374 32.1477 74.3629ZM40.6479 77.9434C40.7124 77.9601 40.7792 77.9792 40.8437 77.9959C40.7744 78.0222 40.7076 78.0437 40.636 78.0723C40.6431 78.027 40.6455 77.9864 40.6479 77.9434ZM56.567 79.0796L56.419 78.946C56.388 78.946 56.3593 78.946 56.3283 78.946L56.5455 79.0916C56.4214 79.1775 56.2925 79.2491 56.1564 79.304C55.9153 79.409 55.6575 79.4759 55.3854 79.5189C55.2493 79.5403 55.1085 79.5547 54.9653 79.5642C54.8221 79.5761 54.6741 79.5785 54.5213 79.5737C54.2181 79.5642 53.8959 79.6358 53.5856 79.7552C53.4304 79.8148 53.2777 79.8865 53.1297 79.9676C52.9841 80.0464 52.8432 80.1395 52.7119 80.223C52.7048 80.2278 52.7 80.2302 52.6928 80.235C51.9863 80.2779 51.2797 80.2994 50.5708 80.3042C50.5135 80.2684 50.461 80.2254 50.4013 80.1944C50.2628 80.118 50.1196 80.0535 49.974 79.9891C49.9239 79.9676 49.8714 79.9509 49.8213 79.9318C50.9312 79.822 52.0388 79.6478 53.1344 79.4162C52.7525 79.3828 52.287 79.3685 51.7643 79.378C51.5041 79.3876 51.2248 79.378 50.936 79.3804C50.7761 79.3804 50.6114 79.3828 50.4443 79.3852C50.461 79.3613 50.4777 79.3398 50.4944 79.316L51.7977 79.2897C52.0245 79.2825 52.2512 79.2849 52.478 79.2706L53.1559 79.2229L53.8338 79.1727C54.0606 79.1536 54.2874 79.1465 54.5117 79.1131L55.4904 78.9913C55.5 79.0224 55.5095 79.0534 55.5191 79.0868L55.9702 78.9937L56.1946 78.946L56.1994 78.9436C56.2423 78.9436 56.2853 78.946 56.3259 78.946C56.314 78.9364 56.302 78.9293 56.2901 78.9221L56.4166 78.8887C56.5001 78.8672 56.5813 78.8457 56.6648 78.8242L56.9059 78.7813C56.8009 78.8935 56.6887 78.9961 56.567 79.0796ZM52.1796 80.5333C52.0245 80.6073 51.8693 80.6622 51.7118 80.6909C51.5447 80.7219 51.3776 80.7243 51.2081 80.6885C51.1437 80.6742 51.0792 80.6551 51.0148 80.6312C50.9909 80.6097 50.9646 80.5906 50.9408 80.5691C51.2248 80.562 51.5089 80.5548 51.7882 80.5477C51.9194 80.5405 52.0483 80.5357 52.1796 80.5333ZM56.4118 78.2657C56.1397 78.3253 55.87 78.385 55.5955 78.4375C55.5835 78.4304 55.574 78.4208 55.562 78.4137L55.5358 78.3946C55.8198 78.3516 56.1039 78.3039 56.3856 78.2561C56.3927 78.2585 56.4023 78.2609 56.4118 78.2657ZM18.5322 34.9794C18.5656 35.0987 18.599 35.2157 18.63 35.335C18.6611 35.452 18.704 35.5714 18.7398 35.6883C18.8114 35.9223 18.8759 36.1514 18.9165 36.3782C18.9379 36.4904 18.9523 36.6026 18.9594 36.7147C18.9738 36.8269 18.9785 36.9391 18.9761 37.0513C18.9738 37.111 18.9642 37.1683 18.957 37.228C18.9284 37.3091 18.9045 37.3951 18.8711 37.469C18.7947 37.6385 18.7541 37.8176 18.7327 37.999C18.7016 38.0921 18.673 38.1852 18.642 38.2806C18.5823 38.4692 18.5274 38.6578 18.4749 38.8464C18.4486 38.9418 18.42 39.0373 18.4009 39.1328L18.346 39.4216C18.3125 39.615 18.2815 39.8083 18.2576 40.0041C18.2433 40.1115 18.2409 40.2213 18.2529 40.3335C18.2672 40.4457 18.2911 40.5579 18.3173 40.6748C18.3722 40.9087 18.4438 41.1546 18.494 41.4267C18.6825 41.3742 18.8568 41.3193 19.0239 41.262C18.9952 41.3957 18.9618 41.5174 18.9236 41.6201C18.8401 41.8803 18.7374 42.0163 18.704 41.9519C18.7923 43.1406 19.3461 44.2363 19.2316 45.8642C19.105 46.017 19.1003 46.3798 19.1552 46.8333C19.222 47.2869 19.3676 47.8287 19.5013 48.3515C19.6278 48.8074 19.7591 49.2442 19.8426 49.6023C19.7281 49.545 19.6135 49.4877 19.4893 49.4256C19.2435 50.0105 18.7852 50.5714 18.9117 51.0011C18.9666 51.204 19.0048 51.4045 19.031 51.6074C19.0573 51.8031 19.0692 51.9965 19.0859 52.1922C18.6969 51.1157 18.3555 50.0224 18.0715 48.9148C17.9712 48.4852 17.8686 48.0555 17.7683 47.6282C17.6895 47.1938 17.6084 46.7617 17.5296 46.3273C17.4389 45.8952 17.4007 45.456 17.3386 45.0192L17.2527 44.3628C17.236 44.253 17.2288 44.1432 17.2193 44.0334L17.193 43.704C17.1405 43.3483 17.088 42.9998 17.0307 42.6584C16.9973 42.489 16.9854 42.3171 16.9615 42.15C16.94 41.9829 16.9185 41.8158 16.897 41.6511C16.8541 41.3217 16.7992 41.0018 16.7538 40.6891C16.718 40.3764 16.6774 40.0709 16.6345 39.7725C16.6846 39.5314 16.7276 39.2689 16.7681 38.992C16.8254 38.7151 16.8779 38.4215 16.9281 38.1112C16.9519 37.956 16.9758 37.7985 17.0021 37.6361C17.0283 37.4738 17.0427 37.3067 17.0785 37.1396C17.1429 36.8031 17.2026 36.4522 17.2623 36.0893C17.2933 35.9079 17.3195 35.7241 17.353 35.5379C17.3864 35.3732 17.4222 35.2038 17.458 35.0343C17.7922 34.9746 18.1478 34.9555 18.5322 34.9794ZM21.4944 65.2707C21.5112 65.3853 21.535 65.4975 21.5613 65.6097C21.5064 65.5786 21.4491 65.5428 21.3894 65.5094C21.0934 65.1561 20.8022 64.8005 20.5158 64.4376C20.5277 64.3278 20.5468 64.2156 20.5778 64.1011C20.8762 64.4973 21.1817 64.8864 21.4944 65.2707ZM33.1049 75.4538C32.988 75.3702 32.871 75.2867 32.766 75.1864C32.606 75.0384 32.4676 74.8689 32.3411 74.6875C32.8853 74.9811 33.4343 75.2652 33.9929 75.5301C34.1719 75.6877 34.3557 75.8309 34.5467 75.9431C34.7902 76.0911 35.036 76.2152 35.2819 76.3298C35.406 76.3871 35.5278 76.442 35.6519 76.4969C35.776 76.547 35.9025 76.5947 36.0266 76.6425C36.2558 76.7332 36.4993 76.8096 36.7356 76.8955C36.8526 76.9385 36.9695 76.9862 37.0817 77.034C37.1963 77.0817 37.3037 77.1342 37.4063 77.1963C37.4087 77.1987 37.4135 77.201 37.4159 77.2034C37.2464 77.1485 37.0745 77.0936 36.9051 77.0363C35.6041 76.5757 34.3175 76.0744 33.1049 75.4538ZM59.5746 78.4805C60.2167 78.5497 60.5724 78.5091 60.7944 78.4256C60.9161 78.5688 61.0784 78.7264 61.2981 78.9651C61.3744 78.4089 61.4341 78.0938 61.4484 77.9458C61.5248 77.9219 61.6227 77.91 61.754 77.9172C61.9306 77.941 62.1073 77.9649 62.2839 77.9888C62.2839 78.0508 62.2815 78.1129 62.2863 78.175C62.26 78.1988 62.2385 78.2179 62.2147 78.2394C62.0882 78.2633 61.9616 78.2871 61.8351 78.311C61.9449 78.3086 62.0428 78.3086 62.1407 78.3062C61.8065 78.6118 61.532 78.8505 61.3028 79.0128C61.1715 79.1083 61.0522 79.1727 60.94 79.2157C60.8278 79.2587 60.7252 79.2778 60.6249 79.2754C60.2955 79.261 60.0043 78.9985 59.5746 78.4805ZM15.2476 54.8681C15.2524 54.8824 15.2595 54.8991 15.2643 54.9134C15.3526 55.1473 15.4577 55.3932 15.5364 55.6391C15.577 55.7608 15.6057 55.8849 15.6295 56.0043C15.6534 56.1236 15.6653 56.243 15.6582 56.3576C15.6558 56.3814 15.6558 56.4077 15.6558 56.4316C15.5531 56.1976 15.4481 55.9637 15.3503 55.7274C15.2404 55.4672 15.1354 55.2022 15.0304 54.9397C15.1068 54.9206 15.1784 54.8991 15.2476 54.8681ZM15.9112 60.0837C15.7942 59.8832 15.6892 59.6731 15.5866 59.4655C15.4815 59.2578 15.3765 59.0501 15.2739 58.8448C15.1688 58.6372 15.0638 58.4319 14.9612 58.2266C14.8561 58.0213 14.7678 57.8065 14.6723 57.5988C14.4814 57.1787 14.2928 56.761 14.1018 56.3456C14.2785 56.7276 14.4551 57.1071 14.6318 57.4866L14.8967 58.0547C14.9898 58.2433 15.0901 58.4247 15.1855 58.6109C15.3789 58.9809 15.5722 59.3509 15.7656 59.7185C15.9661 60.0837 16.1833 60.437 16.391 60.7974C16.4149 60.838 16.4387 60.8786 16.4626 60.9192C16.3838 60.8332 16.3051 60.7449 16.2311 60.6518C16.1236 60.4632 16.0186 60.2723 15.9112 60.0837ZM66.1389 77.3968C66.7285 77.2154 67.2274 76.9862 67.8194 76.7475C67.8361 76.7404 67.8552 76.7332 67.8719 76.726L67.6595 76.8358C67.2943 77.0149 66.9219 77.1796 66.5543 77.3514C66.1031 77.571 65.6401 77.762 65.1746 77.9482C65.5016 77.7692 65.8215 77.583 66.1389 77.3968ZM58.9516 81.5765C59.071 81.5311 59.1903 81.4834 59.3049 81.4356C59.6534 81.2948 59.9828 81.1563 60.2907 81.0203C60.4435 80.9511 60.5939 80.8842 60.7371 80.8198C60.8803 80.7529 61.014 80.6789 61.1453 80.6097C61.279 80.5381 61.4079 80.4665 61.5296 80.3973L62.229 80.1872C62.3364 80.1538 62.4462 80.1228 62.5512 80.087L62.8711 79.9748L63.5084 79.748C65.7904 78.9483 67.9889 77.9195 70.0919 76.7213C70.2231 76.7547 70.2852 76.8239 70.2017 76.9576L70.5931 76.4921C71.4453 76.0959 72.054 75.7354 72.5767 75.4585C73.1019 75.1864 73.5053 74.931 73.9326 74.7018C74.1999 74.5562 74.4744 74.4106 74.7728 74.2483C73.8251 74.9907 72.8608 75.6805 71.8678 76.3179C69.9224 77.5663 67.8695 78.6333 65.609 79.5308L65.6138 79.5284L66.3108 79.2539C66.5447 79.1632 66.7691 79.0534 66.9983 78.9531C67.4542 78.7455 67.9125 78.5449 68.3636 78.3301L69.7004 77.6474L70.0346 77.4756C70.1444 77.4159 70.2518 77.3514 70.3616 77.2894L71.0132 76.9146L71.5575 76.6019C70.4809 77.2512 69.3662 77.8646 68.2109 78.4232C65.8549 79.5618 63.3485 80.4928 60.7467 81.1635C60.1475 81.3139 59.5508 81.4523 58.9516 81.5765Z" fill="#AAF4EB"/>
<path d="M5.46575 35.3613C5.42756 35.2777 5.39176 35.199 5.35356 35.1178C5.32015 35.1608 5.28434 35.2037 5.24854 35.2467C5.27002 35.2992 5.27718 35.3756 5.31298 35.3971C5.3464 35.4162 5.41324 35.378 5.46575 35.3613Z" fill="#AAF4EB"/>
<path d="M4.37238 44.1431C4.37476 44.0071 4.38192 43.871 4.3867 43.7373C4.39863 43.4676 4.40818 43.1979 4.42012 42.9258C4.28883 42.9067 4.15038 42.8899 4.01432 42.8708C4.01194 43.1501 4.00716 43.4318 4.00477 43.7135L4 44.136L4.01432 44.5561C4.13129 44.5537 4.25541 44.5513 4.37476 44.5513C4.37238 44.4153 4.37238 44.2792 4.37238 44.1431Z" fill="#AAF4EB"/>
<path d="M4.94775 52.7555C5.03846 53.1136 5.12917 53.4693 5.21749 53.8249C5.32013 53.7963 5.42516 53.7676 5.5278 53.7366C5.43948 53.3857 5.34877 53.03 5.26045 52.6768C5.15781 52.7054 5.05278 52.7317 4.94775 52.7555Z" fill="#AAF4EB"/>
<path d="M4.26978 48.7454C4.29126 48.9387 4.28887 49.1392 4.34616 49.3206C4.36764 49.3851 4.53712 49.3875 4.6875 49.4304C4.68034 49.2299 4.72092 49.0246 4.65647 48.8647C4.62544 48.7836 4.40584 48.7812 4.26978 48.7454Z" fill="#AAF4EB"/>
<path d="M22.9219 76.3656C22.9457 76.3202 22.9696 76.2773 22.9983 76.2295L21.9695 75.5445L21.4562 75.1983C21.2868 75.0814 21.1221 74.9549 20.955 74.8331C20.9454 74.8928 20.9359 74.9477 20.9287 75.005C21.091 75.122 21.251 75.2485 21.4181 75.3583L21.9169 75.6948C22.2535 75.9192 22.5877 76.1412 22.9219 76.3656Z" fill="#AAF4EB"/>
<path d="M27.4883 3.37286C27.4573 3.28692 27.4262 3.1986 27.3952 3.11267C27.1159 3.27021 26.8414 3.44447 26.5669 3.61156C26.6027 3.67362 26.6361 3.73807 26.6719 3.80252C26.944 3.65691 27.2162 3.50892 27.4883 3.37286Z" fill="#AAF4EB"/>
<path d="M32.5489 1.73296L32.8091 1.64226L33.074 1.56348L33.6039 1.40594C33.5825 1.33433 33.561 1.26033 33.5395 1.18872L32.9881 1.3033L32.7112 1.36297L32.4415 1.4322C32.0762 1.52768 31.7134 1.62316 31.3506 1.71864C31.4007 1.84515 31.4556 1.97405 31.5081 2.10056C31.8542 1.97883 32.2028 1.85709 32.5489 1.73296Z" fill="#AAF4EB"/>
<path d="M15.6295 12.5055L15.8229 12.3003L16.0234 12.1045L16.4268 11.713C16.3767 11.6581 16.3265 11.6032 16.2764 11.5483L15.8348 11.9112L15.6152 12.095L15.4028 12.2859C15.1187 12.5437 14.837 12.8015 14.553 13.0569C14.6532 13.1476 14.7559 13.2336 14.8585 13.3243C15.1163 13.0522 15.3717 12.7777 15.6295 12.5055Z" fill="#AAF4EB"/>
<path d="M21.1292 8.57892C21.4443 8.41183 21.7713 8.2328 22.1055 8.04423C22.442 7.86281 22.7977 7.68856 23.1534 7.49999C23.33 7.40689 23.509 7.31141 23.6905 7.21593C23.7812 7.16819 23.8695 7.11806 23.9626 7.07271C24.0557 7.02735 24.1464 6.982 24.2395 6.93903C24.6095 6.75762 24.9842 6.57382 25.3566 6.38763L25.6359 6.2468C25.729 6.20144 25.8245 6.16087 25.9199 6.11551C26.1085 6.02958 26.2971 5.94126 26.4857 5.85533C26.6718 5.76701 26.858 5.68107 27.0442 5.59514C27.2304 5.50921 27.4118 5.4185 27.598 5.34212C27.968 5.18457 28.3332 5.02703 28.6841 4.87187C28.8608 4.7931 29.035 4.71672 29.2045 4.64272C29.3787 4.57349 29.5482 4.50427 29.7153 4.43743C30.0495 4.30137 30.3693 4.1677 30.6701 4.03641C31.8875 3.54707 32.8328 3.12457 33.26 2.82142C32.9569 2.50633 32.6704 2.24137 32.3482 2.16021C32.0307 2.08622 31.675 2.19363 31.2454 2.60897C31.0855 2.76413 30.9088 2.90258 30.7202 3.0267C30.5317 3.15322 30.3359 3.27734 30.133 3.38714C29.7249 3.60675 29.2904 3.78578 28.8751 3.94809C28.4693 4.12473 28.0587 4.29421 27.6458 4.45653C27.4405 4.54008 27.2304 4.61646 27.0275 4.70239L26.4188 4.96974C26.013 5.14877 25.6025 5.32063 25.1991 5.5116C24.8004 5.7121 24.4042 5.915 24.0127 6.12983C22.1413 7.17535 20.3797 8.4357 18.7087 9.81301C19.1432 9.62921 19.6588 9.3738 20.2269 9.06349C20.5038 8.89878 20.8141 8.7484 21.1292 8.57892Z" fill="#AAF4EB"/>
<path d="M11.8271 16.3558C11.7627 16.2937 11.6959 16.2293 11.6314 16.1672C11.45 16.4394 11.2829 16.7234 11.1086 17.0027C11.1659 17.0433 11.2256 17.0815 11.2853 17.122C11.4667 16.8666 11.6433 16.6064 11.8271 16.3558Z" fill="#AAF4EB"/>
<path d="M13.1589 71.0306C13.3953 71.3075 13.6292 71.582 13.8631 71.8565C13.9419 71.7825 14.023 71.7061 14.1018 71.6321C13.8703 71.36 13.6363 71.0855 13.4048 70.8134C13.3236 70.8874 13.2401 70.9614 13.1589 71.0306Z" fill="#AAF4EB"/>
<path d="M38.2442 83.4765C38.6381 83.5171 39.0343 83.5577 39.4306 83.5983C39.4306 83.5481 39.4353 83.4956 39.4401 83.4431L38.2251 83.319L37.6188 83.2521C37.4159 83.2283 37.2154 83.1925 37.0149 83.1638C37.034 83.2211 37.0459 83.276 37.0674 83.3309C37.2631 83.3596 37.4589 83.3954 37.657 83.4145L38.2442 83.4765Z" fill="#AAF4EB"/>
<path d="M18.6802 42.909C18.5657 42.9067 18.4511 42.8995 18.3317 42.8923C18.2911 43.0976 18.2458 43.3053 18.2004 43.5153C18.315 43.5177 18.4296 43.5201 18.5418 43.5225C18.5871 43.3196 18.6349 43.1143 18.6802 42.909Z" fill="#AAF4EB"/>
<path d="M5.83081 55.2786C5.87139 55.3144 5.91197 55.3789 5.95255 55.3812C5.98835 55.3812 6.03132 55.3168 6.0719 55.2786C6.00029 55.2213 5.93584 55.1688 5.86662 55.1139C5.85468 55.1664 5.84275 55.2237 5.83081 55.2786Z" fill="#AAF4EB"/>
</g>
<path d="M63 49H61.9915V48.9495C61.9915 43.8895 59.2875 39.4555 55.252 37H60.2775C60.624 37.595 61.262 38 62 38C63.1045 38 64 37.1045 64 36C64 34.8955 63.1045 34 62 34C61.2615 34 60.624 34.405 60.2775 35H51V34C51 33.448 50.552 33 50 33H46C45.448 33 45 33.448 45 34V35H35.7225C35.376 34.405 34.7384 34 34 34C32.8955 34 32 34.8955 32 36C32 37.1045 32.8955 38 34 38C34.7385 38 35.376 37.595 35.7225 37H40.7475C36.712 39.456 34.0085 43.8895 34.0085 48.9495V49H33C32.448 49 32 49.448 32 50V54C32 54.552 32.448 55 33 55H37C37.552 55 38 54.552 38 54V50C38 49.448 37.552 49 37 49H36.0085V48.9495C36.0085 43.373 39.8355 38.6785 45 37.3435V38C45 38.552 45.448 39 46 39H50C50.552 39 51 38.552 51 38V37.3435C56.1645 38.679 59.9915 43.3735 59.9915 48.9495V49H59C58.448 49 58 49.448 58 50V54C58 54.552 58.448 55 59 55H63C63.552 55 64 54.552 64 54V50C64 49.448 63.552 49 63 49ZM36 53H34V51H36V53ZM49 37H47V35H49V37ZM62 53H60V51H62V53Z" fill="black"/>
</g>
<defs>
<filter id="filter0_d_53_222" x="0" y="0" width="96" height="96" filterUnits="userSpaceOnUse" color-interpolation-filters="sRGB">
<feFlood flood-opacity="0" result="BackgroundImageFix"/>
<feColorMatrix in="SourceAlpha" type="matrix" values="0 0 0 0 0 0 0 0 0 0 0 0 0 0 0 0 0 0 127 0" result="hardAlpha"/>
<feOffset dy="4"/>
<feGaussianBlur stdDeviation="2"/>
<feComposite in2="hardAlpha" operator="out"/>
<feColorMatrix type="matrix" values="0 0 0 0 0 0 0 0 0 0 0 0 0 0 0 0 0 0 0.25 0"/>
<feBlend mode="normal" in2="BackgroundImageFix" result="effect1_dropShadow_53_222"/>
<feBlend mode="normal" in="SourceGraphic" in2="effect1_dropShadow_53_222" result="shape"/>
</filter>
<clipPath id="clip0_53_222">
<rect width="88" height="88" fill="white" transform="translate(4)"/>
</clipPath>
</defs>
</svg>
