<svg width="32" height="32" viewBox="0 0 32 32" fill="none" xmlns="http://www.w3.org/2000/svg">
<path d="M15.9999 13.3333C13.3333 13.3333 11.9999 14.6667 11.9999 17.3333C11.9999 19.3333 13.9919 22.0467 15.9999 24.6667C17.3333 26 17.9999 26.6667 19.3333 27.3333C20.6666 28 22.6666 28.6667 25.3333 26.6667C27.9999 24.6667 27.3333 22 25.9999 18.6667C24.6666 15.3333 22.8893 11.3333 19.3333 6C18.2213 4.66667 17.3333 4 15.9959 4C14.6626 4 13.8319 4.6 12.6666 6C9.11059 11.3333 7.33325 15.3333 5.99992 18.6667C4.66659 22 3.99992 24.6667 6.66659 26.6667C9.33325 28.6667 11.3333 28 12.6666 27.3333C13.9999 26.6667 14.6666 26 15.9999 24.6667C18.0079 22.0467 19.9999 19.3333 19.9999 17.3333C19.9999 14.6667 18.6666 13.3333 15.9999 13.3333Z" stroke="white" stroke-width="2" stroke-linecap="round" stroke-linejoin="round"/>
</svg>
